%TF.GenerationSoftware,KiCad,Pcbnew,9.0.8+dfsg-1*%
%TF.CreationDate,2026-06-24T13:11:48+06:00*%
%TF.ProjectId,ESP32_project,45535033-325f-4707-926f-6a6563742e6b,rev?*%
%TF.SameCoordinates,Original*%
%TF.FileFunction,Soldermask,Top*%
%TF.FilePolarity,Negative*%
%FSLAX46Y46*%
G04 Gerber Fmt 4.6, Leading zero omitted, Abs format (unit mm)*
G04 Created by KiCad (PCBNEW 9.0.8+dfsg-1) date 2026-06-24 13:11:48*
%MOMM*%
%LPD*%
G01*
G04 APERTURE LIST*
G04 Aperture macros list*
%AMRoundRect*
0 Rectangle with rounded corners*
0 $1 Rounding radius*
0 $2 $3 $4 $5 $6 $7 $8 $9 X,Y pos of 4 corners*
0 Add a 4 corners polygon primitive as box body*
4,1,4,$2,$3,$4,$5,$6,$7,$8,$9,$2,$3,0*
0 Add four circle primitives for the rounded corners*
1,1,$1+$1,$2,$3*
1,1,$1+$1,$4,$5*
1,1,$1+$1,$6,$7*
1,1,$1+$1,$8,$9*
0 Add four rect primitives between the rounded corners*
20,1,$1+$1,$2,$3,$4,$5,0*
20,1,$1+$1,$4,$5,$6,$7,0*
20,1,$1+$1,$6,$7,$8,$9,0*
20,1,$1+$1,$8,$9,$2,$3,0*%
%AMFreePoly0*
4,1,108,-1.922481,2.957613,-1.594493,2.882752,-1.276950,2.771639,-0.973843,2.625670,-0.688986,2.446683,-0.425960,2.236926,-0.188074,1.999040,0.021683,1.736014,0.200670,1.451157,0.346639,1.148050,0.457752,0.830507,0.532613,0.502519,0.570280,0.168211,0.570280,-0.168211,0.532613,-0.502519,0.457752,-0.830507,0.346639,-1.148050,0.200670,-1.451157,0.021683,-1.736014,-0.188074,-1.999040,
-0.425960,-2.236926,-0.688986,-2.446683,-0.973843,-2.625670,-1.276950,-2.771639,-1.594493,-2.882752,-1.922481,-2.957613,-2.256789,-2.995280,-2.593211,-2.995280,-2.927519,-2.957613,-3.255507,-2.882752,-3.573050,-2.771639,-3.876157,-2.625670,-4.161014,-2.446683,-4.424040,-2.236926,-4.661926,-1.999040,-4.871683,-1.736014,-5.050670,-1.451157,-5.196639,-1.148050,-5.307752,-0.830507,-5.382613,-0.502519,
-5.420280,-0.168211,-5.420280,0.121255,-4.275000,0.121255,-4.275000,-0.121255,-4.243346,-0.361691,-4.180579,-0.595939,-4.087774,-0.819990,-3.966519,-1.030010,-3.818888,-1.222407,-3.647407,-1.393888,-3.455010,-1.541519,-3.244990,-1.662774,-3.020939,-1.755579,-2.786691,-1.818346,-2.546255,-1.850000,-2.303745,-1.850000,-2.063309,-1.818346,-1.829061,-1.755579,-1.605010,-1.662774,-1.394990,-1.541519,
-1.202593,-1.393888,-1.031112,-1.222407,-0.883481,-1.030010,-0.762226,-0.819990,-0.669421,-0.595939,-0.606654,-0.361691,-0.575000,-0.121255,-0.575000,0.121255,-0.606654,0.361691,-0.669421,0.595939,-0.762226,0.819990,-0.883481,1.030010,-1.031112,1.222407,-1.202593,1.393888,-1.394990,1.541519,-1.605010,1.662774,-1.829061,1.755579,-2.063309,1.818346,-2.303745,1.850000,-2.546255,1.850000,
-2.786691,1.818346,-3.020939,1.755579,-3.244990,1.662774,-3.455010,1.541519,-3.647407,1.393888,-3.818888,1.222407,-3.966519,1.030010,-4.087774,0.819990,-4.180579,0.595939,-4.243346,0.361691,-4.275000,0.121255,-5.420280,0.121255,-5.420280,0.168211,-5.382613,0.502519,-5.307752,0.830507,-5.196639,1.148050,-5.050670,1.451157,-4.871683,1.736014,-4.661926,1.999040,-4.424040,2.236926,
-4.161014,2.446683,-3.876157,2.625670,-3.573050,2.771639,-3.255507,2.882752,-2.927519,2.957613,-2.593211,2.995280,-2.256789,2.995280,-1.922481,2.957613,-1.922481,2.957613,$1*%
G04 Aperture macros list end*
%ADD10RoundRect,0.250000X-0.250000X-0.475000X0.250000X-0.475000X0.250000X0.475000X-0.250000X0.475000X0*%
%ADD11RoundRect,0.102000X-0.275000X-0.285000X0.275000X-0.285000X0.275000X0.285000X-0.275000X0.285000X0*%
%ADD12RoundRect,0.250000X-0.450000X0.262500X-0.450000X-0.262500X0.450000X-0.262500X0.450000X0.262500X0*%
%ADD13RoundRect,0.250000X-0.945000X0.420000X-0.945000X-0.420000X0.945000X-0.420000X0.945000X0.420000X0*%
%ADD14RoundRect,0.102000X-0.550000X-0.400000X0.550000X-0.400000X0.550000X0.400000X-0.550000X0.400000X0*%
%ADD15RoundRect,0.102000X-0.550000X-0.500000X0.550000X-0.500000X0.550000X0.500000X-0.550000X0.500000X0*%
%ADD16C,1.000000*%
%ADD17R,1.400000X1.000000*%
%ADD18RoundRect,0.102000X0.475000X-1.075000X0.475000X1.075000X-0.475000X1.075000X-0.475000X-1.075000X0*%
%ADD19RoundRect,0.102000X1.625000X-1.075000X1.625000X1.075000X-1.625000X1.075000X-1.625000X-1.075000X0*%
%ADD20RoundRect,0.250000X0.475000X-0.250000X0.475000X0.250000X-0.475000X0.250000X-0.475000X-0.250000X0*%
%ADD21C,3.700000*%
%ADD22FreePoly0,0.000000*%
%ADD23RoundRect,0.250000X0.450000X-0.262500X0.450000X0.262500X-0.450000X0.262500X-0.450000X-0.262500X0*%
%ADD24RoundRect,0.250000X-0.262500X-0.450000X0.262500X-0.450000X0.262500X0.450000X-0.262500X0.450000X0*%
%ADD25RoundRect,0.250000X0.420000X0.945000X-0.420000X0.945000X-0.420000X-0.945000X0.420000X-0.945000X0*%
%ADD26RoundRect,0.250000X-0.475000X0.250000X-0.475000X-0.250000X0.475000X-0.250000X0.475000X0.250000X0*%
%ADD27RoundRect,0.150000X-0.150000X0.512500X-0.150000X-0.512500X0.150000X-0.512500X0.150000X0.512500X0*%
%ADD28R,0.910000X2.810000*%
%ADD29RoundRect,0.102000X0.600000X-0.600000X0.600000X0.600000X-0.600000X0.600000X-0.600000X-0.600000X0*%
%ADD30RoundRect,0.102000X0.800000X-0.750000X0.800000X0.750000X-0.800000X0.750000X-0.800000X-0.750000X0*%
%ADD31RoundRect,0.250000X0.262500X0.450000X-0.262500X0.450000X-0.262500X-0.450000X0.262500X-0.450000X0*%
%ADD32RoundRect,0.116000X0.116000X-0.406000X0.116000X0.406000X-0.116000X0.406000X-0.116000X-0.406000X0*%
%ADD33RoundRect,0.116000X0.406000X-0.116000X0.406000X0.116000X-0.406000X0.116000X-0.406000X-0.116000X0*%
%ADD34RoundRect,0.102000X1.350000X-1.350000X1.350000X1.350000X-1.350000X1.350000X-1.350000X-1.350000X0*%
%ADD35R,0.350000X0.500000*%
%ADD36RoundRect,0.250000X0.350000X0.650000X-0.350000X0.650000X-0.350000X-0.650000X0.350000X-0.650000X0*%
%ADD37O,1.200000X1.800000*%
%ADD38RoundRect,0.250000X0.250000X0.475000X-0.250000X0.475000X-0.250000X-0.475000X0.250000X-0.475000X0*%
%ADD39C,1.150000*%
%ADD40C,1.650000*%
%ADD41RoundRect,0.102000X-0.500000X-0.750000X0.500000X-0.750000X0.500000X0.750000X-0.500000X0.750000X0*%
%ADD42RoundRect,0.102000X-0.350000X-0.750000X0.350000X-0.750000X0.350000X0.750000X-0.350000X0.750000X0*%
%ADD43RoundRect,0.102000X-0.750000X-1.400000X0.750000X-1.400000X0.750000X1.400000X-0.750000X1.400000X0*%
%ADD44R,1.000000X1.400000*%
%ADD45RoundRect,0.151000X-0.546000X-0.151000X0.546000X-0.151000X0.546000X0.151000X-0.546000X0.151000X0*%
%ADD46RoundRect,0.250000X-0.350000X-0.625000X0.350000X-0.625000X0.350000X0.625000X-0.350000X0.625000X0*%
%ADD47O,1.200000X1.750000*%
%ADD48RoundRect,0.062500X0.350000X0.062500X-0.350000X0.062500X-0.350000X-0.062500X0.350000X-0.062500X0*%
%ADD49RoundRect,0.062500X0.062500X0.350000X-0.062500X0.350000X-0.062500X-0.350000X0.062500X-0.350000X0*%
%ADD50R,2.500000X2.500000*%
%ADD51O,1.804000X0.804000*%
%ADD52RoundRect,0.102000X-0.750000X-0.450000X0.750000X-0.450000X0.750000X0.450000X-0.750000X0.450000X0*%
%ADD53RoundRect,0.102000X-0.350000X-0.350000X0.350000X-0.350000X0.350000X0.350000X-0.350000X0.350000X0*%
%ADD54RoundRect,0.102000X-0.150000X-0.600000X0.150000X-0.600000X0.150000X0.600000X-0.150000X0.600000X0*%
%ADD55C,0.854000*%
%ADD56RoundRect,0.102000X-0.100000X-0.500000X0.100000X-0.500000X0.100000X0.500000X-0.100000X0.500000X0*%
%ADD57O,1.254000X2.304000*%
%ADD58C,1.412000*%
%ADD59R,1.700000X1.700000*%
%ADD60C,1.700000*%
G04 APERTURE END LIST*
D10*
%TO.C,C6*%
X144000000Y-112250000D03*
X145900000Y-112250000D03*
%TD*%
D11*
%TO.C,S1*%
X177000000Y-113750000D03*
X179550000Y-113750000D03*
X177000000Y-114910000D03*
X179550000Y-114910000D03*
%TD*%
D12*
%TO.C,R20*%
X188750000Y-73750000D03*
X188750000Y-75575000D03*
%TD*%
D13*
%TO.C,C3*%
X144000000Y-82670000D03*
X144000000Y-85750000D03*
%TD*%
D14*
%TO.C,Q1*%
X166657500Y-80200000D03*
X166657500Y-81300000D03*
D15*
X170167500Y-80750000D03*
%TD*%
D16*
%TO.C,TP2*%
X185250000Y-79500000D03*
%TD*%
D17*
%TO.C,LED2*%
X135000000Y-99312500D03*
X135000000Y-97512500D03*
%TD*%
D18*
%TO.C,VR2*%
X147200000Y-87150000D03*
X149500000Y-87150000D03*
X151800000Y-87150000D03*
D19*
X149500000Y-81350000D03*
%TD*%
D20*
%TO.C,C21*%
X163325000Y-73000000D03*
X163325000Y-71100000D03*
%TD*%
D21*
%TO.C,H2*%
X135750000Y-91825000D03*
D22*
X138175000Y-91825000D03*
%TD*%
D12*
%TO.C,R7*%
X140750000Y-101912500D03*
X140750000Y-103737500D03*
%TD*%
D10*
%TO.C,C17*%
X148875000Y-73750000D03*
X150775000Y-73750000D03*
%TD*%
D23*
%TO.C,R21*%
X171750000Y-63075000D03*
X171750000Y-61250000D03*
%TD*%
D24*
%TO.C,R25*%
X153912500Y-73750000D03*
X155737500Y-73750000D03*
%TD*%
D23*
%TO.C,R1*%
X156550000Y-106162500D03*
X156550000Y-104337500D03*
%TD*%
D16*
%TO.C,TP3*%
X185750000Y-71250000D03*
%TD*%
D11*
%TO.C,S2*%
X172225000Y-113670000D03*
X174775000Y-113670000D03*
X172225000Y-114830000D03*
X174775000Y-114830000D03*
%TD*%
D24*
%TO.C,R23*%
X167500000Y-78000000D03*
X169325000Y-78000000D03*
%TD*%
D25*
%TO.C,C2*%
X150750000Y-90000000D03*
X147670000Y-90000000D03*
%TD*%
D26*
%TO.C,C15*%
X162500000Y-61750000D03*
X162500000Y-63650000D03*
%TD*%
D27*
%TO.C,U2*%
X165700000Y-97250000D03*
X164750000Y-97250000D03*
X163800000Y-97250000D03*
X163800000Y-99525000D03*
X164750000Y-99525000D03*
X165700000Y-99525000D03*
%TD*%
D28*
%TO.C,F1*%
X158420000Y-101250000D03*
X155180000Y-101250000D03*
%TD*%
D16*
%TO.C,TP5*%
X185900000Y-76600000D03*
%TD*%
D29*
%TO.C,T1*%
X175100000Y-106937500D03*
D30*
X176100000Y-103687500D03*
D29*
X177100000Y-106937500D03*
%TD*%
D23*
%TO.C,R8*%
X136000000Y-103825000D03*
X136000000Y-102000000D03*
%TD*%
D17*
%TO.C,LED4*%
X160500000Y-81550000D03*
X160500000Y-79750000D03*
%TD*%
D31*
%TO.C,R18*%
X190500000Y-86750000D03*
X188675000Y-86750000D03*
%TD*%
D23*
%TO.C,R9*%
X134000000Y-103825000D03*
X134000000Y-102000000D03*
%TD*%
D16*
%TO.C,TP1*%
X189250000Y-78500000D03*
%TD*%
D20*
%TO.C,C8*%
X159750000Y-91200000D03*
X159750000Y-89300000D03*
%TD*%
D13*
%TO.C,C12*%
X188500000Y-68960000D03*
X188500000Y-72040000D03*
%TD*%
D20*
%TO.C,C9*%
X156250000Y-91200000D03*
X156250000Y-89300000D03*
%TD*%
D21*
%TO.C,H3*%
X135250000Y-70954100D03*
D22*
X137675000Y-70954100D03*
%TD*%
D23*
%TO.C,R30*%
X175500000Y-101300000D03*
X175500000Y-99475000D03*
%TD*%
D24*
%TO.C,R32*%
X170500000Y-106100000D03*
X172325000Y-106100000D03*
%TD*%
D32*
%TO.C,U4*%
X163000000Y-92185000D03*
X163500000Y-92185000D03*
X164000000Y-92185000D03*
X164500000Y-92185000D03*
X165000000Y-92185000D03*
D33*
X165935000Y-91250000D03*
X165935000Y-90750000D03*
X165935000Y-90250000D03*
X165935000Y-89750000D03*
X165935000Y-89250000D03*
D32*
X165000000Y-88315000D03*
X164500000Y-88315000D03*
X164000000Y-88315000D03*
X163500000Y-88315000D03*
X163000000Y-88315000D03*
D33*
X162065000Y-89250000D03*
X162065000Y-89750000D03*
X162065000Y-90250000D03*
X162065000Y-90750000D03*
X162065000Y-91250000D03*
D34*
X164000000Y-90250000D03*
%TD*%
D26*
%TO.C,C10*%
X173750000Y-70050000D03*
X173750000Y-71950000D03*
%TD*%
D17*
%TO.C,LED3*%
X140500000Y-99462500D03*
X140500000Y-97662500D03*
%TD*%
D23*
%TO.C,R11*%
X170250000Y-92662500D03*
X170250000Y-90837500D03*
%TD*%
D31*
%TO.C,R6*%
X138412500Y-85500000D03*
X136587500Y-85500000D03*
%TD*%
D23*
%TO.C,R17*%
X192000000Y-75325000D03*
X192000000Y-73500000D03*
%TD*%
D24*
%TO.C,R24*%
X154250000Y-71250000D03*
X156075000Y-71250000D03*
%TD*%
D35*
%TO.C,U6*%
X165100000Y-61250000D03*
X165750000Y-61250000D03*
X166400000Y-61250000D03*
X167050000Y-61250000D03*
X167050000Y-63300000D03*
X166400000Y-63300000D03*
X165750000Y-63300000D03*
X165100000Y-63300000D03*
%TD*%
D10*
%TO.C,C18*%
X159125000Y-73750000D03*
X161025000Y-73750000D03*
%TD*%
D36*
%TO.C,J5*%
X142260000Y-62250000D03*
D37*
X140260000Y-62250000D03*
X138260000Y-62250000D03*
X136260000Y-62250000D03*
X134260000Y-62250000D03*
%TD*%
D25*
%TO.C,C13*%
X196290000Y-86750000D03*
X193210000Y-86750000D03*
%TD*%
D38*
%TO.C,C1*%
X150750000Y-93000000D03*
X148850000Y-93000000D03*
%TD*%
D23*
%TO.C,R26*%
X165825000Y-73075000D03*
X165825000Y-71250000D03*
%TD*%
D39*
%TO.C,J3*%
X187375000Y-92300000D03*
D40*
X208375000Y-92300000D03*
D41*
X205750000Y-89500000D03*
X203250000Y-89500000D03*
X200750000Y-89500000D03*
X198250000Y-89500000D03*
X195750000Y-89500000D03*
X193250000Y-89500000D03*
X190825000Y-89500000D03*
X189125000Y-89500000D03*
X208250000Y-89500000D03*
D42*
X187825000Y-89500000D03*
D43*
X185225000Y-91300000D03*
X210325000Y-91300000D03*
X212525000Y-112800000D03*
X185225000Y-112800000D03*
D42*
X186625000Y-89500000D03*
%TD*%
D31*
%TO.C,R12*%
X170412500Y-88750000D03*
X168587500Y-88750000D03*
%TD*%
D12*
%TO.C,R10*%
X138500000Y-101912500D03*
X138500000Y-103737500D03*
%TD*%
D44*
%TO.C,LED6*%
X138400000Y-83000000D03*
X136600000Y-83000000D03*
%TD*%
D23*
%TO.C,R4*%
X143250000Y-103737500D03*
X143250000Y-101912500D03*
%TD*%
D16*
%TO.C,TP4*%
X208000000Y-86000000D03*
%TD*%
D24*
%TO.C,R29*%
X149000000Y-71250000D03*
X150825000Y-71250000D03*
%TD*%
D10*
%TO.C,C11*%
X198550000Y-87000000D03*
X200450000Y-87000000D03*
%TD*%
D20*
%TO.C,C7*%
X168250000Y-92700000D03*
X168250000Y-90800000D03*
%TD*%
D31*
%TO.C,R27*%
X160825000Y-68000000D03*
X159000000Y-68000000D03*
%TD*%
D45*
%TO.C,U7*%
X154325000Y-67250000D03*
X154325000Y-67900000D03*
X154325000Y-68550000D03*
X156245000Y-68550000D03*
X156245000Y-67250000D03*
%TD*%
D31*
%TO.C,R31*%
X181300000Y-99900000D03*
X179475000Y-99900000D03*
%TD*%
D46*
%TO.C,J1*%
X134750000Y-108662500D03*
D47*
X136750000Y-108662500D03*
%TD*%
D10*
%TO.C,C16*%
X148875000Y-68750000D03*
X150775000Y-68750000D03*
%TD*%
D23*
%TO.C,R2*%
X156550000Y-109825000D03*
X156550000Y-108000000D03*
%TD*%
D31*
%TO.C,R13*%
X181162500Y-75750000D03*
X179337500Y-75750000D03*
%TD*%
D38*
%TO.C,C22*%
X150775000Y-66250000D03*
X148875000Y-66250000D03*
%TD*%
D48*
%TO.C,U1*%
X146437500Y-108662500D03*
X146437500Y-108162500D03*
X146437500Y-107662500D03*
X146437500Y-107162500D03*
X146437500Y-106662500D03*
D49*
X145500000Y-105725000D03*
X145000000Y-105725000D03*
X144500000Y-105725000D03*
X144000000Y-105725000D03*
X143500000Y-105725000D03*
D48*
X142562500Y-106662500D03*
X142562500Y-107162500D03*
X142562500Y-107662500D03*
X142562500Y-108162500D03*
X142562500Y-108662500D03*
D49*
X143500000Y-109600000D03*
X144000000Y-109600000D03*
X144500000Y-109600000D03*
X145000000Y-109600000D03*
X145500000Y-109600000D03*
D50*
X144500000Y-107662500D03*
%TD*%
D51*
%TO.C,U3*%
X176150000Y-69595000D03*
X176150000Y-70865000D03*
X176150000Y-72135000D03*
X176150000Y-73405000D03*
X183350000Y-73405000D03*
X183350000Y-72135000D03*
X183350000Y-70865000D03*
X183350000Y-69595000D03*
%TD*%
D23*
%TO.C,R3*%
X145500000Y-103737500D03*
X145500000Y-101912500D03*
%TD*%
D21*
%TO.C,H1*%
X177204127Y-88175000D03*
D22*
X179629127Y-88175000D03*
%TD*%
D23*
%TO.C,R22*%
X169000000Y-63075000D03*
X169000000Y-61250000D03*
%TD*%
D20*
%TO.C,C4*%
X168500000Y-101750000D03*
X168500000Y-99850000D03*
%TD*%
D29*
%TO.C,T2*%
X180500000Y-106400000D03*
D30*
X181500000Y-103150000D03*
D29*
X182500000Y-106400000D03*
%TD*%
D52*
%TO.C,U5*%
X195640000Y-71050000D03*
X195640000Y-72550000D03*
X195640000Y-74050000D03*
X195640000Y-75550000D03*
X195640000Y-77050000D03*
X195640000Y-78550000D03*
X195640000Y-80050000D03*
X195640000Y-81550000D03*
X195640000Y-83050000D03*
X213140000Y-83050000D03*
X213140000Y-81550000D03*
X213140000Y-80050000D03*
X213140000Y-78550000D03*
X213140000Y-77050000D03*
X213140000Y-75550000D03*
X213140000Y-74050000D03*
X213140000Y-72550000D03*
X213140000Y-71050000D03*
D53*
X204250000Y-76150000D03*
X205350000Y-76150000D03*
X206450000Y-76150000D03*
X204250000Y-77250000D03*
X205350000Y-77250000D03*
X206450000Y-77250000D03*
X204250000Y-78350000D03*
X205350000Y-78350000D03*
X206450000Y-78350000D03*
%TD*%
D31*
%TO.C,R19*%
X204412500Y-86750000D03*
X202587500Y-86750000D03*
%TD*%
%TO.C,R14*%
X168075000Y-84500000D03*
X166250000Y-84500000D03*
%TD*%
D10*
%TO.C,C20*%
X172100000Y-111000000D03*
X174000000Y-111000000D03*
%TD*%
D26*
%TO.C,C14*%
X192500000Y-67300000D03*
X192500000Y-69200000D03*
%TD*%
D54*
%TO.C,J2*%
X160400000Y-103790000D03*
X160900000Y-103790000D03*
X161400000Y-103790000D03*
X161900000Y-103790000D03*
X162400000Y-103790000D03*
X162900000Y-103790000D03*
X163400000Y-103790000D03*
X163900000Y-103790000D03*
X164400000Y-103790000D03*
X164900000Y-103790000D03*
X165400000Y-103790000D03*
X165900000Y-103790000D03*
D55*
X165950000Y-105040000D03*
X165550000Y-105750000D03*
X164750000Y-105750000D03*
X164350000Y-105040000D03*
X163950000Y-105750000D03*
X163550000Y-105040000D03*
X162750000Y-105040000D03*
X162350000Y-105750000D03*
X161950000Y-105040000D03*
X161550000Y-105750000D03*
X160750000Y-105750000D03*
X160350000Y-105040000D03*
X165150000Y-105040000D03*
X161150000Y-105040000D03*
D56*
X163150000Y-108370000D03*
X163150000Y-111470000D03*
D57*
X158880000Y-106190000D03*
X167420000Y-106190000D03*
X158880000Y-110920000D03*
X167420000Y-110920000D03*
%TD*%
D23*
%TO.C,R16*%
X162750000Y-85412500D03*
X162750000Y-83587500D03*
%TD*%
D17*
%TO.C,LED1*%
X137750000Y-99312500D03*
X137750000Y-97512500D03*
%TD*%
D23*
%TO.C,R5*%
X147500000Y-103825000D03*
X147500000Y-102000000D03*
%TD*%
D58*
%TO.C,MK1*%
X143825000Y-69300000D03*
X143825000Y-71200000D03*
%TD*%
D31*
%TO.C,R28*%
X160900000Y-71250000D03*
X159075000Y-71250000D03*
%TD*%
D59*
%TO.C,J4*%
X157130000Y-62250000D03*
D60*
X154590000Y-62250000D03*
X152050000Y-62250000D03*
X149510000Y-62250000D03*
%TD*%
D20*
%TO.C,C19*%
X181500000Y-114750000D03*
X181500000Y-112850000D03*
%TD*%
D26*
%TO.C,C5*%
X140500000Y-83250000D03*
X140500000Y-85150000D03*
%TD*%
D23*
%TO.C,R15*%
X156250000Y-87075000D03*
X156250000Y-85250000D03*
%TD*%
D17*
%TO.C,LED5*%
X158000000Y-81550000D03*
X158000000Y-79750000D03*
%TD*%
M02*
