%TF.GenerationSoftware,KiCad,Pcbnew,9.0.8+dfsg-1*%
%TF.CreationDate,2026-06-24T13:11:48+06:00*%
%TF.ProjectId,ESP32_project,45535033-325f-4707-926f-6a6563742e6b,rev?*%
%TF.SameCoordinates,Original*%
%TF.FileFunction,Copper,L4,Bot*%
%TF.FilePolarity,Positive*%
%FSLAX46Y46*%
G04 Gerber Fmt 4.6, Leading zero omitted, Abs format (unit mm)*
G04 Created by KiCad (PCBNEW 9.0.8+dfsg-1) date 2026-06-24 13:11:48*
%MOMM*%
%LPD*%
G01*
G04 APERTURE LIST*
G04 Aperture macros list*
%AMRoundRect*
0 Rectangle with rounded corners*
0 $1 Rounding radius*
0 $2 $3 $4 $5 $6 $7 $8 $9 X,Y pos of 4 corners*
0 Add a 4 corners polygon primitive as box body*
4,1,4,$2,$3,$4,$5,$6,$7,$8,$9,$2,$3,0*
0 Add four circle primitives for the rounded corners*
1,1,$1+$1,$2,$3*
1,1,$1+$1,$4,$5*
1,1,$1+$1,$6,$7*
1,1,$1+$1,$8,$9*
0 Add four rect primitives between the rounded corners*
20,1,$1+$1,$2,$3,$4,$5,0*
20,1,$1+$1,$4,$5,$6,$7,0*
20,1,$1+$1,$6,$7,$8,$9,0*
20,1,$1+$1,$8,$9,$2,$3,0*%
G04 Aperture macros list end*
%TA.AperFunction,ComponentPad*%
%ADD10RoundRect,0.250000X0.350000X0.650000X-0.350000X0.650000X-0.350000X-0.650000X0.350000X-0.650000X0*%
%TD*%
%TA.AperFunction,ComponentPad*%
%ADD11O,1.200000X1.800000*%
%TD*%
%TA.AperFunction,ComponentPad*%
%ADD12RoundRect,0.250000X-0.350000X-0.625000X0.350000X-0.625000X0.350000X0.625000X-0.350000X0.625000X0*%
%TD*%
%TA.AperFunction,ComponentPad*%
%ADD13O,1.200000X1.750000*%
%TD*%
%TA.AperFunction,ComponentPad*%
%ADD14C,0.500000*%
%TD*%
%TA.AperFunction,ComponentPad*%
%ADD15C,0.650000*%
%TD*%
%TA.AperFunction,ComponentPad*%
%ADD16O,1.050000X2.100000*%
%TD*%
%TA.AperFunction,ComponentPad*%
%ADD17C,1.208000*%
%TD*%
%TA.AperFunction,ComponentPad*%
%ADD18R,1.700000X1.700000*%
%TD*%
%TA.AperFunction,ComponentPad*%
%ADD19C,1.700000*%
%TD*%
%TA.AperFunction,ViaPad*%
%ADD20C,0.650000*%
%TD*%
%TA.AperFunction,ViaPad*%
%ADD21C,0.600000*%
%TD*%
%TA.AperFunction,Conductor*%
%ADD22C,0.254000*%
%TD*%
%TA.AperFunction,Conductor*%
%ADD23C,0.500000*%
%TD*%
%TA.AperFunction,Conductor*%
%ADD24C,0.200000*%
%TD*%
G04 APERTURE END LIST*
D10*
%TO.P,J5,1,Pin_1*%
%TO.N,+3.3V*%
X142260000Y-62250000D03*
D11*
%TO.P,J5,2,Pin_2*%
%TO.N,/esp32 c3 0.2/GPIO8*%
X140260000Y-62250000D03*
%TO.P,J5,3,Pin_3*%
%TO.N,/esp32 c3 0.2/GPIO18*%
X138260000Y-62250000D03*
%TO.P,J5,4,Pin_4*%
%TO.N,/esp32 c3 0.2/GPIO19*%
X136260000Y-62250000D03*
%TO.P,J5,5,Pin_5*%
%TO.N,GND*%
X134260000Y-62250000D03*
%TD*%
D12*
%TO.P,J1,1,1*%
%TO.N,GND*%
X134750000Y-108662500D03*
D13*
%TO.P,J1,2,2*%
%TO.N,/VBAT*%
X136750000Y-108662500D03*
%TD*%
D14*
%TO.P,U5,28,GND*%
%TO.N,GND*%
X204800000Y-76150000D03*
%TO.P,U5,29,GND*%
X205900000Y-76150000D03*
%TO.P,U5,30,GND*%
X204250000Y-76700000D03*
%TO.P,U5,31,GND*%
X205350000Y-76700000D03*
%TO.P,U5,32,GND*%
X206450000Y-76700000D03*
%TO.P,U5,33,GND*%
X204800000Y-77250000D03*
%TO.P,U5,34,GND*%
X205900000Y-77250000D03*
%TO.P,U5,35,GND*%
X204250000Y-77800000D03*
%TO.P,U5,36,GND*%
X205350000Y-77800000D03*
%TO.P,U5,37,GND*%
X206450000Y-77800000D03*
%TO.P,U5,38,GND*%
X204800000Y-78350000D03*
%TO.P,U5,39,GND*%
X205900000Y-78350000D03*
%TD*%
D15*
%TO.P,J2,B1,GNDB1*%
%TO.N,GND*%
X165950000Y-105040000D03*
%TO.P,J2,B2,SSTXP2*%
%TO.N,unconnected-(J2-SSTXP2-PadB2)*%
X165550000Y-105750000D03*
%TO.P,J2,B3,SSTXN2*%
%TO.N,unconnected-(J2-SSTXN2-PadB3)*%
X164750000Y-105750000D03*
%TO.P,J2,B4,VBUSB1*%
%TO.N,/VBUS*%
X164350000Y-105040000D03*
%TO.P,J2,B5,CC2*%
%TO.N,Net-(J2-CC2)*%
X163950000Y-105750000D03*
%TO.P,J2,B6,DP2*%
%TO.N,/USB_DP*%
X163550000Y-105040000D03*
%TO.P,J2,B7,DN2*%
%TO.N,/USB_DN*%
X162750000Y-105040000D03*
%TO.P,J2,B8,SBU2*%
%TO.N,unconnected-(J2-SBU2-PadB8)*%
X162350000Y-105750000D03*
%TO.P,J2,B9,VBUSB2*%
%TO.N,/VBUS*%
X161950000Y-105040000D03*
%TO.P,J2,B10,SSRXN1*%
%TO.N,unconnected-(J2-SSRXN1-PadB10)*%
X161550000Y-105750000D03*
%TO.P,J2,B11,SSRXP1*%
%TO.N,unconnected-(J2-SSRXP1-PadB11)*%
X160750000Y-105750000D03*
%TO.P,J2,B12,GNDB2*%
%TO.N,GND*%
X160350000Y-105040000D03*
%TO.P,J2,G1,GND/SHIELD*%
X165150000Y-105040000D03*
%TO.P,J2,G2,GND/SHIELD*%
X161150000Y-105040000D03*
D16*
%TO.P,J2,S1,GND/SHIELD*%
X158880000Y-106190000D03*
%TO.P,J2,S2,GND/SHIELD*%
X167420000Y-106190000D03*
%TO.P,J2,S3,GND/SHIELD*%
X158880000Y-110920000D03*
%TO.P,J2,S4,GND/SHIELD*%
X167420000Y-110920000D03*
%TD*%
D17*
%TO.P,MK1,GND*%
%TO.N,GND*%
X143825000Y-69300000D03*
%TO.P,MK1,OUT*%
%TO.N,Net-(C22-Pad2)*%
X143825000Y-71200000D03*
%TD*%
D18*
%TO.P,J4,1,Pin_1*%
%TO.N,+3.3V*%
X157130000Y-62250000D03*
D19*
%TO.P,J4,2,Pin_2*%
%TO.N,/esp32 c3 0.2/SDA*%
X154590000Y-62250000D03*
%TO.P,J4,3,Pin_3*%
%TO.N,/esp32 c3 0.2/SCL*%
X152050000Y-62250000D03*
%TO.P,J4,4,Pin_4*%
%TO.N,GND*%
X149510000Y-62250000D03*
%TD*%
D20*
%TO.N,+5V*%
X148344800Y-108255700D03*
X147967304Y-109081700D03*
X151500000Y-108500000D03*
X149000000Y-105000000D03*
%TO.N,GND*%
X138750000Y-89250000D03*
X133250000Y-108000000D03*
D21*
X184500000Y-101750000D03*
D20*
X148250000Y-67750000D03*
X165750000Y-64000000D03*
X176900000Y-112700000D03*
X150500000Y-104750000D03*
X192451000Y-89400000D03*
X146250000Y-91500000D03*
X181750000Y-110750000D03*
X144000000Y-87750000D03*
X162271791Y-86400463D03*
X147750000Y-105750000D03*
X199500000Y-86300000D03*
X176000000Y-110750000D03*
X205600000Y-105700000D03*
X142250000Y-105500000D03*
X167220300Y-90700000D03*
X164500000Y-75600000D03*
X191350000Y-87671536D03*
X138750000Y-87750000D03*
X144250000Y-89500000D03*
X149300000Y-67800000D03*
X133250000Y-109000000D03*
X146750000Y-66250000D03*
X175700000Y-112700000D03*
X164000000Y-94300000D03*
X164700000Y-96100000D03*
X145500000Y-94250000D03*
X139750000Y-102000000D03*
X147250000Y-114000000D03*
X176000000Y-75500000D03*
X145500000Y-93000000D03*
X201300000Y-83200000D03*
X193000000Y-91750000D03*
X146250000Y-94250000D03*
X191400000Y-92900000D03*
X170000000Y-98900000D03*
X161000000Y-101750000D03*
X135000000Y-102000000D03*
X183250000Y-110000000D03*
X140500000Y-86750000D03*
X181100000Y-70300000D03*
X164644100Y-86775000D03*
X145525000Y-106637500D03*
X164500000Y-78250000D03*
X152600000Y-67600000D03*
X144500000Y-66000000D03*
X210900000Y-95400000D03*
X146500000Y-62500000D03*
X141000000Y-89250000D03*
X145500000Y-91500000D03*
X167250000Y-64250000D03*
X189400000Y-91200000D03*
X137250000Y-101912500D03*
X191878259Y-71021741D03*
X135250000Y-65000000D03*
X133250000Y-110000000D03*
X173500000Y-74500000D03*
X142750000Y-89250000D03*
%TO.N,+3V3*%
X150600000Y-83800000D03*
X140750000Y-80500000D03*
X145200000Y-83900000D03*
X143500000Y-80500000D03*
X150600000Y-83800000D03*
%TO.N,/VBUS*%
X164750000Y-100750000D03*
X165665380Y-101915380D03*
X159750000Y-101250000D03*
X159750000Y-102500000D03*
X161750000Y-102250000D03*
X168500000Y-101000000D03*
X167300000Y-97600000D03*
X159750000Y-100094000D03*
%TO.N,/+5V_USB*%
X148054701Y-110582051D03*
X147750000Y-111750000D03*
X153500000Y-102750000D03*
X153500000Y-101250000D03*
X149750000Y-110750000D03*
X153500000Y-99750000D03*
X136250000Y-97512500D03*
X139250000Y-97662500D03*
X149750000Y-110000000D03*
X147500000Y-107500000D03*
X150000000Y-106500000D03*
X144750000Y-114000000D03*
X148267766Y-106500000D03*
%TO.N,+3.3V*%
X169000000Y-66500000D03*
X182700000Y-68800000D03*
X168500000Y-75500000D03*
X150150000Y-79000000D03*
X179200000Y-69300000D03*
X148850000Y-79000000D03*
X157500000Y-72600000D03*
X164750000Y-64500000D03*
X200100000Y-88200000D03*
X151450000Y-79000000D03*
X159200000Y-92400000D03*
X170250000Y-85250000D03*
X146250000Y-79000000D03*
X147550000Y-79000000D03*
X169000000Y-64250000D03*
X159910965Y-67365645D03*
X158600000Y-75800000D03*
X172000000Y-64750000D03*
X184051591Y-68948409D03*
X157475000Y-92500000D03*
X185400000Y-68300000D03*
X152750000Y-79000000D03*
X202200000Y-88200000D03*
X171000000Y-65900000D03*
X166000000Y-93100000D03*
X159500000Y-63750000D03*
X163300000Y-93700000D03*
%TO.N,Net-(U4-~{RXT}{slash}GPIO.3)*%
X162160903Y-85734631D03*
X161216900Y-90750000D03*
%TO.N,/esp32 c3 0.2/SCLK*%
X192225235Y-76280765D03*
X194715200Y-88448300D03*
%TO.N,/esp32 c3 0.2/CS_SD*%
X211000000Y-71750000D03*
X208500000Y-86500000D03*
%TO.N,/esp32 c3 0.2/MOSI_DI*%
X194658300Y-90601700D03*
X190567200Y-79810618D03*
%TO.N,/esp32 c3 0.2/CS*%
X179082316Y-70475000D03*
X184745050Y-76054950D03*
X187124900Y-75775100D03*
X197901600Y-85595400D03*
%TO.N,/USB_DN*%
X166874000Y-100972182D03*
%TO.N,/USB_DP*%
X162500000Y-100250000D03*
%TO.N,/esp32 c3 0.2/SDA*%
X195640000Y-74050000D03*
X176750000Y-66750000D03*
X192750000Y-71000000D03*
%TO.N,/esp32 c3 0.2/SCL*%
X170582900Y-61240800D03*
X210450000Y-75758278D03*
%TO.N,/esp32 c3 0.2/PHOTO_C*%
X185198400Y-74631200D03*
X196875100Y-72550000D03*
D21*
%TO.N,Net-(R31-Pad2)*%
X183750000Y-105405331D03*
X181000000Y-101250000D03*
D20*
%TO.N,/esp32 c3 0.2/RX_TX*%
X188064938Y-83163468D03*
X189639100Y-84817200D03*
%TO.N,/esp32 c3 0.2/TX_RX*%
X160808100Y-90156900D03*
X165220100Y-84165500D03*
%TO.N,/esp32 c3 0.2/DTR*%
X174800000Y-92900000D03*
X163900000Y-87300000D03*
X177500000Y-99800000D03*
X177300000Y-97000000D03*
%TO.N,/esp32 c3 0.2/RTS*%
X175600000Y-92200000D03*
X166100000Y-86000000D03*
X183200000Y-99200000D03*
X162280995Y-88689140D03*
X163266678Y-86875507D03*
X183100000Y-97000000D03*
%TO.N,/esp32 c3 0.2/BOOT*%
X197100000Y-81550000D03*
X207000000Y-80900000D03*
X183200000Y-113800000D03*
X211800000Y-85100000D03*
X183200000Y-113800000D03*
X199200000Y-80800000D03*
X211700000Y-80800000D03*
X179400000Y-112300000D03*
%TO.N,/esp32 c3 0.2/GPIO18*%
X166200000Y-76100000D03*
X161100000Y-76500000D03*
X188691268Y-79766268D03*
X207400000Y-77200000D03*
X191500000Y-80600000D03*
X210100000Y-79000000D03*
X152500000Y-77100000D03*
X193425000Y-82500000D03*
%TO.N,/esp32 c3 0.2/GPIO19*%
X210300000Y-77100000D03*
X208575299Y-76377029D03*
X152500000Y-77800000D03*
X192998581Y-80781434D03*
%TO.N,/esp32 c3 0.2/GPIO8*%
X172800000Y-77800000D03*
X193473593Y-79673593D03*
X190700000Y-78900000D03*
X170900000Y-73200000D03*
X192750950Y-78950951D03*
X163946590Y-64687500D03*
%TO.N,/esp32 c3 0.2/EN*%
X171000000Y-99500000D03*
X189857673Y-81584790D03*
%TD*%
D22*
%TO.N,+5V*%
X148825000Y-105175000D02*
X148825000Y-105870405D01*
X149175000Y-106779595D02*
X148344800Y-107609795D01*
X149000000Y-105000000D02*
X148825000Y-105175000D01*
X149303996Y-108500000D02*
X151500000Y-108500000D01*
X147967304Y-109081700D02*
X147992304Y-109106700D01*
X148344800Y-107609795D02*
X148344800Y-108255700D01*
X148825000Y-105870405D02*
X149175000Y-106220405D01*
X148697296Y-109106700D02*
X149303996Y-108500000D01*
X147992304Y-109106700D02*
X148697296Y-109106700D01*
X149175000Y-106220405D02*
X149175000Y-106779595D01*
%TO.N,GND*%
X145525000Y-106637500D02*
X146412500Y-105750000D01*
X175700000Y-112700000D02*
X176900000Y-112700000D01*
X164000000Y-94300000D02*
X166400000Y-94300000D01*
X167200000Y-96100000D02*
X164700000Y-96100000D01*
X181300000Y-70500000D02*
X187800000Y-70500000D01*
X146500000Y-66000000D02*
X146750000Y-66250000D01*
X162271791Y-86400463D02*
X162321747Y-86350507D01*
X149500000Y-67600000D02*
X149300000Y-67800000D01*
X170000000Y-98900000D02*
X167200000Y-96100000D01*
X181100000Y-70300000D02*
X181300000Y-70500000D01*
X201300000Y-84500000D02*
X201300000Y-83200000D01*
X205600000Y-105700000D02*
X205600000Y-105600000D01*
D23*
X183250000Y-110000000D02*
X184500000Y-108750000D01*
D22*
X205600000Y-105600000D02*
X210900000Y-100300000D01*
D23*
X184500000Y-108750000D02*
X184500000Y-101750000D01*
D22*
X191400000Y-88500000D02*
X192300000Y-89400000D01*
X164219607Y-86350507D02*
X164644100Y-86775000D01*
X191400000Y-87721536D02*
X191400000Y-88500000D01*
X210900000Y-100300000D02*
X210900000Y-95400000D01*
X199500000Y-86300000D02*
X201300000Y-84500000D01*
X166400000Y-94300000D02*
X167220300Y-93479700D01*
X192300000Y-89400000D02*
X192451000Y-89400000D01*
X146750000Y-66250000D02*
X148250000Y-67750000D01*
X146412500Y-105750000D02*
X147750000Y-105750000D01*
X191100000Y-92900000D02*
X191400000Y-92900000D01*
X164500000Y-78250000D02*
X164500000Y-75600000D01*
X162321747Y-86350507D02*
X164219607Y-86350507D01*
X187900000Y-70400000D02*
X191256518Y-70400000D01*
X187800000Y-70500000D02*
X187900000Y-70400000D01*
X147750000Y-105750000D02*
X147500000Y-105750000D01*
X152600000Y-67600000D02*
X149500000Y-67600000D01*
X191256518Y-70400000D02*
X191878259Y-71021741D01*
X189400000Y-91200000D02*
X191100000Y-92900000D01*
X191350000Y-87671536D02*
X191400000Y-87721536D01*
X167220300Y-93479700D02*
X167220300Y-90700000D01*
%TO.N,/VBUS*%
X166900000Y-99400000D02*
X168500000Y-101000000D01*
X165750000Y-101750000D02*
X165750000Y-101830760D01*
X167300000Y-97600000D02*
X167300000Y-99000000D01*
X165600000Y-101600000D02*
X165600000Y-100700000D01*
X165600000Y-101600000D02*
X165750000Y-101750000D01*
X164750000Y-100750000D02*
X165600000Y-101600000D01*
X165750000Y-101830760D02*
X165665380Y-101915380D01*
X165600000Y-100700000D02*
X166900000Y-99400000D01*
X167300000Y-99000000D02*
X166900000Y-99400000D01*
%TO.N,/+5V_USB*%
X147500000Y-107000000D02*
X148000000Y-106500000D01*
X148750000Y-111750000D02*
X149750000Y-110750000D01*
X149167949Y-110582051D02*
X148054701Y-110582051D01*
X147750000Y-111750000D02*
X148750000Y-111750000D01*
X149750000Y-110000000D02*
X149167949Y-110582051D01*
X147500000Y-107500000D02*
X147500000Y-107000000D01*
X148000000Y-106500000D02*
X148267766Y-106500000D01*
%TO.N,+3.3V*%
X159910965Y-64160965D02*
X159910965Y-67365645D01*
X184051591Y-68948409D02*
X184700000Y-68300000D01*
X170400000Y-66500000D02*
X171000000Y-65900000D01*
X184700000Y-68300000D02*
X185400000Y-68300000D01*
X165400000Y-93700000D02*
X166000000Y-93100000D01*
X200200000Y-88300000D02*
X202100000Y-88300000D01*
X169000000Y-66500000D02*
X170400000Y-66500000D01*
X202100000Y-88300000D02*
X202200000Y-88200000D01*
X182200000Y-69300000D02*
X182700000Y-68800000D01*
X200100000Y-88200000D02*
X200200000Y-88300000D01*
X163300000Y-93700000D02*
X165400000Y-93700000D01*
X158600000Y-75800000D02*
X157500000Y-74700000D01*
X169000000Y-64250000D02*
X169000000Y-65750000D01*
X159500000Y-63750000D02*
X159910965Y-64160965D01*
X159100000Y-92500000D02*
X159200000Y-92400000D01*
X157475000Y-92500000D02*
X159100000Y-92500000D01*
X179200000Y-69300000D02*
X182200000Y-69300000D01*
X157500000Y-74700000D02*
X157500000Y-72600000D01*
%TO.N,Net-(U4-~{RXT}{slash}GPIO.3)*%
X161400000Y-90566900D02*
X161400000Y-87222182D01*
X161216900Y-90750000D02*
X161400000Y-90566900D01*
X162189012Y-85771684D02*
X162160903Y-85743575D01*
X161721791Y-86900391D02*
X161721791Y-86172645D01*
X162160903Y-85743575D02*
X162160903Y-85734631D01*
X162189012Y-85850463D02*
X162189012Y-85771684D01*
X161400000Y-87222182D02*
X161721791Y-86900391D01*
X161721791Y-86172645D02*
X162043973Y-85850463D01*
X162043973Y-85850463D02*
X162189012Y-85850463D01*
%TO.N,/esp32 c3 0.2/SCLK*%
X194000000Y-79386827D02*
X192225235Y-77612062D01*
X194000000Y-87733100D02*
X194000000Y-79386827D01*
X194715200Y-88448300D02*
X194000000Y-87733100D01*
X192225235Y-77612062D02*
X192225235Y-76280765D01*
%TO.N,/esp32 c3 0.2/CS_SD*%
X210500000Y-86500000D02*
X208500000Y-86500000D01*
X211000000Y-71750000D02*
X211000000Y-86000000D01*
X211000000Y-86000000D02*
X210500000Y-86500000D01*
%TO.N,/esp32 c3 0.2/MOSI_DI*%
X192050000Y-87993400D02*
X192050000Y-87436827D01*
X191081600Y-87025000D02*
X190240800Y-86184200D01*
X190567200Y-81688436D02*
X190567200Y-79810618D01*
X190240800Y-86184200D02*
X190240800Y-82014836D01*
X190240800Y-82014836D02*
X190567200Y-81688436D01*
X192050000Y-87436827D02*
X191638173Y-87025000D01*
X191638173Y-87025000D02*
X191081600Y-87025000D01*
X194658300Y-90601700D02*
X192050000Y-87993400D01*
%TO.N,/esp32 c3 0.2/CS*%
X194225000Y-77432000D02*
X194225000Y-77375431D01*
X194225000Y-77375431D02*
X193624569Y-76775000D01*
X189867100Y-75550000D02*
X189642000Y-75775100D01*
X193568000Y-76775000D02*
X192343000Y-75550000D01*
X189642000Y-75775100D02*
X187124900Y-75775100D01*
X197901600Y-81108600D02*
X194225000Y-77432000D01*
X192343000Y-75550000D02*
X189867100Y-75550000D01*
X179165100Y-70475000D02*
X179082316Y-70475000D01*
X193624569Y-76775000D02*
X193568000Y-76775000D01*
X184745050Y-76054950D02*
X179165100Y-70475000D01*
X197901600Y-85595400D02*
X197901600Y-81108600D01*
%TO.N,/USB_DN*%
X162750000Y-105040000D02*
X162750000Y-103250000D01*
X162750000Y-103250000D02*
X163000000Y-103000000D01*
X163000000Y-103000000D02*
X165500000Y-103000000D01*
X165500000Y-103000000D02*
X166874000Y-101626000D01*
X166874000Y-101626000D02*
X166874000Y-100972182D01*
%TO.N,/esp32 c3 0.2/SDA*%
X176750000Y-66750000D02*
X188500000Y-66750000D01*
X188500000Y-66750000D02*
X192750000Y-71000000D01*
%TO.N,/esp32 c3 0.2/SCL*%
X170582900Y-64669727D02*
X171575000Y-65661827D01*
X172761827Y-65661827D02*
X175500000Y-68400000D01*
X185595600Y-75098300D02*
X210005859Y-75098300D01*
X175500000Y-68400000D02*
X177486827Y-68400000D01*
X179345300Y-69875000D02*
X184740700Y-75270400D01*
X210005859Y-75098300D02*
X210450000Y-75542441D01*
X171575000Y-65661827D02*
X172761827Y-65661827D01*
X184740700Y-75270400D02*
X185423500Y-75270400D01*
X210450000Y-75542441D02*
X210450000Y-75758278D01*
X185423500Y-75270400D02*
X185595600Y-75098300D01*
X170582900Y-61240800D02*
X170582900Y-64669727D01*
X178961827Y-69875000D02*
X179345300Y-69875000D01*
X177486827Y-68400000D02*
X178961827Y-69875000D01*
%TO.N,/esp32 c3 0.2/PHOTO_C*%
X196875100Y-71800000D02*
X196875100Y-72550000D01*
X185198400Y-74631200D02*
X188029600Y-71800000D01*
X188029600Y-71800000D02*
X196875100Y-71800000D01*
D24*
%TO.N,Net-(R31-Pad2)*%
X181000000Y-101250000D02*
X182250000Y-101250000D01*
X183750000Y-102750000D02*
X183750000Y-105405331D01*
X182250000Y-101250000D02*
X183750000Y-102750000D01*
D22*
%TO.N,/esp32 c3 0.2/RX_TX*%
X189639100Y-84289156D02*
X188513412Y-83163468D01*
X189639100Y-84817200D02*
X189639100Y-84289156D01*
X188513412Y-83163468D02*
X188064938Y-83163468D01*
%TO.N,/esp32 c3 0.2/TX_RX*%
X161474878Y-85787995D02*
X161585903Y-85676970D01*
X161474878Y-85805908D02*
X161474878Y-85787995D01*
X161922730Y-85159631D02*
X162399076Y-85159631D01*
X163665200Y-84165500D02*
X165220100Y-84165500D01*
X161585903Y-85496458D02*
X161922730Y-85159631D01*
X161285993Y-86544707D02*
X161285993Y-85994793D01*
X161585903Y-85676970D02*
X161585903Y-85496458D01*
X161285993Y-85994793D02*
X161474878Y-85805908D01*
X160808100Y-90156900D02*
X160808100Y-87022600D01*
X162535073Y-85295627D02*
X163665200Y-84165500D01*
X160808100Y-87022600D02*
X161285993Y-86544707D01*
X162399076Y-85159631D02*
X162535073Y-85295627D01*
%TO.N,/esp32 c3 0.2/DTR*%
X171700000Y-89800000D02*
X174800000Y-92900000D01*
X171700000Y-87300000D02*
X171700000Y-89800000D01*
X163900000Y-87300000D02*
X171700000Y-87300000D01*
X177300000Y-99600000D02*
X177500000Y-99800000D01*
X177300000Y-97000000D02*
X177300000Y-99600000D01*
%TO.N,/esp32 c3 0.2/RTS*%
X166100000Y-86000000D02*
X172500000Y-86000000D01*
X183100000Y-99100000D02*
X183200000Y-99200000D01*
X175600000Y-92200000D02*
X175700000Y-92300000D01*
X172800000Y-89400000D02*
X175600000Y-92200000D01*
X162280995Y-88689140D02*
X162280995Y-88219005D01*
X162280995Y-88219005D02*
X163266678Y-87233322D01*
X172800000Y-86300000D02*
X172800000Y-89400000D01*
X183100000Y-97000000D02*
X183100000Y-99100000D01*
X163266678Y-87233322D02*
X163266678Y-86875507D01*
X172500000Y-86000000D02*
X172800000Y-86300000D01*
%TO.N,/esp32 c3 0.2/BOOT*%
X180300000Y-111400000D02*
X182700000Y-111400000D01*
X211800000Y-85100000D02*
X211800000Y-80900000D01*
X199300000Y-80900000D02*
X199200000Y-80800000D01*
X182700000Y-111400000D02*
X183200000Y-111900000D01*
X207000000Y-80900000D02*
X199300000Y-80900000D01*
X183200000Y-111900000D02*
X183200000Y-113800000D01*
X211800000Y-80900000D02*
X211700000Y-80800000D01*
X179400000Y-112300000D02*
X180300000Y-111400000D01*
%TO.N,/esp32 c3 0.2/GPIO18*%
X207800000Y-77200000D02*
X209600000Y-79000000D01*
X160500000Y-77100000D02*
X161100000Y-76500000D01*
X167800000Y-76100000D02*
X168200000Y-76500000D01*
X207400000Y-77200000D02*
X207800000Y-77200000D01*
X187957536Y-80500000D02*
X188691268Y-79766268D01*
X209600000Y-79000000D02*
X210100000Y-79000000D01*
X193400000Y-82500000D02*
X193425000Y-82500000D01*
X177300000Y-80500000D02*
X187957536Y-80500000D01*
X166200000Y-76100000D02*
X167800000Y-76100000D01*
X152500000Y-77100000D02*
X160500000Y-77100000D01*
X168200000Y-76500000D02*
X173300000Y-76500000D01*
X173300000Y-76500000D02*
X177300000Y-80500000D01*
X191500000Y-80600000D02*
X193400000Y-82500000D01*
%TO.N,/esp32 c3 0.2/GPIO19*%
X192998581Y-80298581D02*
X192998581Y-80781434D01*
X209100000Y-77100000D02*
X208575299Y-76575299D01*
X175600000Y-77800000D02*
X187000000Y-77800000D01*
X210300000Y-77100000D02*
X210500000Y-77100000D01*
X152500000Y-77800000D02*
X160800000Y-77800000D01*
X172500000Y-74700000D02*
X175600000Y-77800000D01*
X163900000Y-74700000D02*
X172500000Y-74700000D01*
X210300000Y-77100000D02*
X209100000Y-77100000D01*
X208575299Y-76575299D02*
X208575299Y-76377029D01*
X187500000Y-77300000D02*
X190000000Y-77300000D01*
X187000000Y-77800000D02*
X187500000Y-77300000D01*
X190000000Y-77300000D02*
X192998581Y-80298581D01*
X160800000Y-77800000D02*
X163900000Y-74700000D01*
%TO.N,/esp32 c3 0.2/GPIO8*%
X170900000Y-72900000D02*
X170900000Y-73200000D01*
X177000000Y-82000000D02*
X177200000Y-82000000D01*
X187600000Y-82000000D02*
X190700000Y-78900000D01*
X193473593Y-79673593D02*
X193473593Y-79428751D01*
X163946590Y-64687500D02*
X163946590Y-65946590D01*
X193473593Y-79428751D02*
X192995793Y-78950951D01*
X163946590Y-65946590D02*
X170900000Y-72900000D01*
X192995793Y-78950951D02*
X192750950Y-78950951D01*
X177200000Y-82000000D02*
X187600000Y-82000000D01*
X172800000Y-77800000D02*
X177000000Y-82000000D01*
%TO.N,/esp32 c3 0.2/EN*%
X171000000Y-99500000D02*
X188150000Y-82350000D01*
X188150000Y-82350000D02*
X189092463Y-82350000D01*
X189092463Y-82350000D02*
X189857673Y-81584790D01*
%TD*%
M02*
