M48
; DRILL file {KiCad 9.0.8+dfsg-1} date 2026-06-24T13:11:51+0600
; FORMAT={-:-/ absolute / metric / decimal}
; #@! TF.CreationDate,2026-06-24T13:11:51+06:00
; #@! TF.GenerationSoftware,Kicad,Pcbnew,9.0.8+dfsg-1
; #@! TF.FileFunction,Plated,1,4,PTH
FMAT,2
METRIC
; #@! TA.AperFunction,Plated,PTH,ViaDrill
T1C0.300
; #@! TA.AperFunction,Plated,PTH,ComponentDrill
T2C0.300
; #@! TA.AperFunction,Plated,PTH,ComponentDrill
T3C0.450
; #@! TA.AperFunction,Plated,PTH,ComponentDrill
T4C0.650
; #@! TA.AperFunction,Plated,PTH,ComponentDrill
T5C0.700
; #@! TA.AperFunction,Plated,PTH,ComponentDrill
T6C0.750
; #@! TA.AperFunction,Plated,PTH,ComponentDrill
T7C0.800
; #@! TA.AperFunction,Plated,PTH,ComponentDrill
T8C1.000
%
G90
G05
T1
X133.25Y-108.0
X133.25Y-109.0
X133.25Y-110.0
X135.0Y-102.0
X135.25Y-65.0
X136.25Y-97.512
X137.25Y-101.912
X138.75Y-87.75
X138.75Y-89.25
X139.25Y-97.662
X139.75Y-102.0
X140.5Y-86.75
X140.75Y-80.5
X141.0Y-89.25
X142.25Y-105.5
X142.75Y-89.25
X143.5Y-80.5
X144.0Y-87.75
X144.25Y-89.5
X144.5Y-66.0
X144.75Y-114.0
X145.2Y-83.9
X145.5Y-91.5
X145.5Y-93.0
X145.5Y-94.25
X145.525Y-106.637
X146.25Y-79.0
X146.25Y-91.5
X146.25Y-94.25
X146.5Y-62.5
X146.75Y-66.25
X147.25Y-114.0
X147.5Y-107.5
X147.55Y-79.0
X147.75Y-105.75
X147.75Y-111.75
X147.967Y-109.082
X148.055Y-110.582
X148.25Y-67.75
X148.268Y-106.5
X148.345Y-108.256
X148.85Y-79.0
X149.0Y-105.0
X149.3Y-67.8
X149.75Y-110.0
X149.75Y-110.75
X150.0Y-106.5
X150.15Y-79.0
X150.5Y-104.75
X150.6Y-83.8
X150.6Y-83.8
X151.45Y-79.0
X151.5Y-108.5
X152.5Y-77.1
X152.5Y-77.8
X152.6Y-67.6
X152.75Y-79.0
X153.5Y-99.75
X153.5Y-101.25
X153.5Y-102.75
X157.475Y-92.5
X157.5Y-72.6
X158.6Y-75.8
X159.2Y-92.4
X159.5Y-63.75
X159.75Y-100.094
X159.75Y-101.25
X159.75Y-102.5
X159.911Y-67.366
X160.808Y-90.157
X161.0Y-101.75
X161.1Y-76.5
X161.217Y-90.75
X161.75Y-102.25
X162.161Y-85.735
X162.272Y-86.4
X162.281Y-88.689
X162.5Y-100.25
X163.267Y-86.876
X163.3Y-93.7
X163.9Y-87.3
X163.947Y-64.688
X164.0Y-94.3
X164.5Y-75.6
X164.5Y-78.25
X164.644Y-86.775
X164.7Y-96.1
X164.75Y-64.5
X164.75Y-100.75
X165.22Y-84.165
X165.665Y-101.915
X165.75Y-64.0
X166.0Y-93.1
X166.1Y-86.0
X166.2Y-76.1
X166.874Y-100.972
X167.22Y-90.7
X167.25Y-64.25
X167.3Y-97.6
X168.5Y-75.5
X168.5Y-101.0
X169.0Y-64.25
X169.0Y-66.5
X170.0Y-98.9
X170.25Y-85.25
X170.583Y-61.241
X170.9Y-73.2
X171.0Y-65.9
X171.0Y-99.5
X172.0Y-64.75
X172.8Y-77.8
X173.5Y-74.5
X174.8Y-92.9
X175.6Y-92.2
X175.7Y-112.7
X176.0Y-75.5
X176.0Y-110.75
X176.75Y-66.75
X176.9Y-112.7
X177.3Y-97.0
X177.5Y-99.8
X179.082Y-70.475
X179.2Y-69.3
X179.4Y-112.3
X181.0Y-101.25
X181.1Y-70.3
X181.75Y-110.75
X182.7Y-68.8
X183.1Y-97.0
X183.2Y-99.2
X183.2Y-113.8
X183.2Y-113.8
X183.25Y-110.0
X183.75Y-105.405
X184.052Y-68.948
X184.5Y-101.75
X184.745Y-76.055
X185.198Y-74.631
X185.4Y-68.3
X187.125Y-75.775
X188.065Y-83.163
X188.691Y-79.766
X189.4Y-91.2
X189.639Y-84.817
X189.858Y-81.585
X190.567Y-79.811
X190.7Y-78.9
X191.35Y-87.672
X191.4Y-92.9
X191.5Y-80.6
X191.878Y-71.022
X192.225Y-76.281
X192.451Y-89.4
X192.75Y-71.0
X192.751Y-78.951
X192.999Y-80.781
X193.0Y-91.75
X193.425Y-82.5
X193.474Y-79.674
X194.658Y-90.602
X194.715Y-88.448
X195.64Y-74.05
X196.875Y-72.55
X197.1Y-81.55
X197.902Y-85.595
X199.2Y-80.8
X199.5Y-86.3
X200.1Y-88.2
X201.3Y-83.2
X202.2Y-88.2
X205.6Y-105.7
X207.0Y-80.9
X207.4Y-77.2
X208.5Y-86.5
X208.575Y-76.377
X210.1Y-79.0
X210.3Y-77.1
X210.45Y-75.758
X210.9Y-95.4
X211.0Y-71.75
X211.7Y-80.8
X211.8Y-85.1
T2
X204.25Y-76.7
X204.25Y-77.8
X204.8Y-76.15
X204.8Y-77.25
X204.8Y-78.35
X205.35Y-76.7
X205.35Y-77.8
X205.9Y-76.15
X205.9Y-77.25
X205.9Y-78.35
X206.45Y-76.7
X206.45Y-77.8
T3
X160.35Y-105.04
X160.75Y-105.75
X161.15Y-105.04
X161.55Y-105.75
X161.95Y-105.04
X162.35Y-105.75
X162.75Y-105.04
X163.55Y-105.04
X163.95Y-105.75
X164.35Y-105.04
X164.75Y-105.75
X165.15Y-105.04
X165.55Y-105.75
X165.95Y-105.04
T5
X143.825Y-69.3
X143.825Y-71.2
T6
X134.75Y-108.662
X136.75Y-108.662
T7
X134.26Y-62.25
X136.26Y-62.25
X138.26Y-62.25
X140.26Y-62.25
X142.26Y-62.25
T8
X149.51Y-62.25
X152.05Y-62.25
X154.59Y-62.25
X157.13Y-62.25
T4
G00X158.88Y-105.89
M15
G01X158.88Y-106.49
M16
G05
G00X158.88Y-110.62
M15
G01X158.88Y-111.22
M16
G05
G00X167.42Y-105.89
M15
G01X167.42Y-106.49
M16
G05
G00X167.42Y-110.62
M15
G01X167.42Y-111.22
M16
G05
M30
