%TF.GenerationSoftware,KiCad,Pcbnew,9.0.8+dfsg-1*%
%TF.CreationDate,2026-06-24T13:11:48+06:00*%
%TF.ProjectId,ESP32_project,45535033-325f-4707-926f-6a6563742e6b,rev?*%
%TF.SameCoordinates,Original*%
%TF.FileFunction,Paste,Top*%
%TF.FilePolarity,Positive*%
%FSLAX46Y46*%
G04 Gerber Fmt 4.6, Leading zero omitted, Abs format (unit mm)*
G04 Created by KiCad (PCBNEW 9.0.8+dfsg-1) date 2026-06-24 13:11:48*
%MOMM*%
%LPD*%
G01*
G04 APERTURE LIST*
G04 Aperture macros list*
%AMRoundRect*
0 Rectangle with rounded corners*
0 $1 Rounding radius*
0 $2 $3 $4 $5 $6 $7 $8 $9 X,Y pos of 4 corners*
0 Add a 4 corners polygon primitive as box body*
4,1,4,$2,$3,$4,$5,$6,$7,$8,$9,$2,$3,0*
0 Add four circle primitives for the rounded corners*
1,1,$1+$1,$2,$3*
1,1,$1+$1,$4,$5*
1,1,$1+$1,$6,$7*
1,1,$1+$1,$8,$9*
0 Add four rect primitives between the rounded corners*
20,1,$1+$1,$2,$3,$4,$5,0*
20,1,$1+$1,$4,$5,$6,$7,0*
20,1,$1+$1,$6,$7,$8,$9,0*
20,1,$1+$1,$8,$9,$2,$3,0*%
%AMFreePoly0*
4,1,83,1.271076,1.181742,1.298636,1.181742,1.308720,1.177564,1.315504,1.176812,1.321908,1.172101,1.334684,1.166810,1.350193,1.151300,1.357205,1.146144,1.358652,1.142841,1.362274,1.139220,1.377206,1.103172,1.377543,1.099740,1.377985,1.098734,1.377803,1.097101,1.379127,1.083663,1.379127,0.250195,1.377206,0.230686,1.374598,0.224392,1.374377,0.219740,1.369581,0.212278,
1.362274,0.194638,1.350988,0.183352,1.346388,0.176195,1.341111,0.173475,1.334684,0.167048,1.303915,0.154302,1.300377,0.152479,1.182351,0.126892,0.954730,0.046097,0.739170,-0.062867,0.539139,-0.198245,0.357858,-0.357858,0.198245,-0.539139,0.062867,-0.739170,-0.046097,-0.954730,-0.126892,-1.182351,-0.152479,-1.300377,-0.154302,-1.303915,-0.167048,-1.334684,-0.173475,-1.341111,
-0.176195,-1.346388,-0.183352,-1.350988,-0.194638,-1.362274,-0.212278,-1.369581,-0.219740,-1.374377,-0.224392,-1.374598,-0.230686,-1.377206,-0.250195,-1.379127,-1.083663,-1.379127,-1.097101,-1.377803,-1.098734,-1.377985,-1.099740,-1.377543,-1.103172,-1.377206,-1.139220,-1.362274,-1.142841,-1.358652,-1.146144,-1.357205,-1.151300,-1.350193,-1.166810,-1.334684,-1.172101,-1.321908,-1.176812,-1.315504,
-1.177564,-1.308720,-1.181742,-1.298636,-1.181742,-1.271076,-1.182521,-1.264056,-1.181742,-1.260292,-1.181742,-1.259618,-1.181462,-1.258943,-1.119992,-0.962002,-1.025949,-0.668230,-0.901441,-0.386018,-0.747858,-0.118514,-0.566913,0.131296,-0.360625,0.360625,-0.131296,0.566913,0.118514,0.747858,0.386018,0.901441,0.668230,1.025949,0.962002,1.119992,1.258943,1.181462,1.259618,1.181742,
1.260293,1.181742,1.264056,1.182521,1.271076,1.181742,1.271076,1.181742,$1*%
%AMFreePoly1*
4,1,83,-0.230686,1.377206,-0.224392,1.374598,-0.219740,1.374377,-0.212278,1.369581,-0.194638,1.362274,-0.183352,1.350988,-0.176195,1.346388,-0.173475,1.341111,-0.167048,1.334684,-0.154302,1.303915,-0.152479,1.300377,-0.126892,1.182351,-0.046097,0.954730,0.062867,0.739170,0.198245,0.539139,0.357858,0.357858,0.539139,0.198245,0.739170,0.062867,0.954730,-0.046097,1.182351,-0.126892,
1.300377,-0.152479,1.303915,-0.154302,1.334684,-0.167048,1.341111,-0.173475,1.346388,-0.176195,1.350988,-0.183352,1.362274,-0.194638,1.369581,-0.212278,1.374377,-0.219740,1.374598,-0.224392,1.377206,-0.230686,1.379127,-0.250195,1.379127,-1.083663,1.377803,-1.097101,1.377985,-1.098734,1.377543,-1.099740,1.377206,-1.103172,1.362274,-1.139220,1.358652,-1.142841,1.357205,-1.146144,
1.350193,-1.151300,1.334684,-1.166810,1.321908,-1.172101,1.315504,-1.176812,1.308720,-1.177564,1.298636,-1.181742,1.271076,-1.181742,1.264056,-1.182521,1.260293,-1.181742,1.259618,-1.181742,1.258943,-1.181462,0.962002,-1.119992,0.668230,-1.025949,0.386018,-0.901441,0.118514,-0.747858,-0.131296,-0.566913,-0.360625,-0.360625,-0.566913,-0.131296,-0.747858,0.118514,-0.901441,0.386018,
-1.025949,0.668230,-1.119992,0.962002,-1.181462,1.258943,-1.181742,1.259618,-1.181742,1.260292,-1.182521,1.264056,-1.181742,1.271076,-1.181742,1.298636,-1.177564,1.308720,-1.176812,1.315504,-1.172101,1.321908,-1.166810,1.334684,-1.151300,1.350193,-1.146144,1.357205,-1.142841,1.358652,-1.139220,1.362274,-1.103172,1.377206,-1.099740,1.377543,-1.098734,1.377985,-1.097101,1.377803,
-1.083663,1.379127,-0.250195,1.379127,-0.230686,1.377206,-0.230686,1.377206,$1*%
%AMFreePoly2*
4,1,83,-1.260293,1.181742,-1.259618,1.181742,-1.258943,1.181462,-0.962002,1.119992,-0.668230,1.025949,-0.386018,0.901441,-0.118514,0.747858,0.131296,0.566913,0.360625,0.360625,0.566913,0.131296,0.747858,-0.118514,0.901441,-0.386018,1.025949,-0.668230,1.119992,-0.962002,1.181462,-1.258943,1.181742,-1.259618,1.181742,-1.260292,1.182521,-1.264056,1.181742,-1.271076,1.181742,-1.298636,
1.177564,-1.308720,1.176812,-1.315504,1.172101,-1.321908,1.166810,-1.334684,1.151300,-1.350193,1.146144,-1.357205,1.142841,-1.358652,1.139220,-1.362274,1.103172,-1.377206,1.099740,-1.377543,1.098734,-1.377985,1.097101,-1.377803,1.083663,-1.379127,0.250195,-1.379127,0.230686,-1.377206,0.224392,-1.374598,0.219740,-1.374377,0.212278,-1.369581,0.194638,-1.362274,0.183352,-1.350988,
0.176195,-1.346388,0.173475,-1.341111,0.167048,-1.334684,0.154302,-1.303915,0.152479,-1.300377,0.126892,-1.182351,0.046097,-0.954730,-0.062867,-0.739170,-0.198245,-0.539139,-0.357858,-0.357858,-0.539139,-0.198245,-0.739170,-0.062867,-0.954730,0.046097,-1.182351,0.126892,-1.300377,0.152479,-1.303915,0.154302,-1.334684,0.167048,-1.341111,0.173475,-1.346388,0.176195,-1.350988,0.183352,
-1.362274,0.194638,-1.369581,0.212278,-1.374377,0.219740,-1.374598,0.224392,-1.377206,0.230686,-1.379127,0.250195,-1.379127,1.083663,-1.377803,1.097101,-1.377985,1.098734,-1.377543,1.099740,-1.377206,1.103172,-1.362274,1.139220,-1.358652,1.142841,-1.357205,1.146144,-1.350193,1.151300,-1.334684,1.166810,-1.321908,1.172101,-1.315504,1.176812,-1.308720,1.177564,-1.298636,1.181742,
-1.271076,1.181742,-1.264056,1.182521,-1.260293,1.181742,-1.260293,1.181742,$1*%
%AMFreePoly3*
4,1,83,1.097101,1.377803,1.098734,1.377985,1.099740,1.377543,1.103172,1.377206,1.139220,1.362274,1.142841,1.358652,1.146144,1.357205,1.151300,1.350193,1.166810,1.334684,1.172101,1.321908,1.176812,1.315504,1.177564,1.308720,1.181742,1.298636,1.181742,1.271076,1.182521,1.264056,1.181742,1.260292,1.181742,1.259618,1.181462,1.258943,1.119992,0.962002,1.025949,0.668230,
0.901441,0.386018,0.747858,0.118514,0.566913,-0.131296,0.360625,-0.360625,0.131296,-0.566913,-0.118514,-0.747858,-0.386018,-0.901441,-0.668230,-1.025949,-0.962002,-1.119992,-1.258943,-1.181462,-1.259618,-1.181742,-1.260293,-1.181742,-1.264056,-1.182521,-1.271076,-1.181742,-1.298636,-1.181742,-1.308720,-1.177564,-1.315504,-1.176812,-1.321908,-1.172101,-1.334684,-1.166810,-1.350193,-1.151300,
-1.357205,-1.146144,-1.358652,-1.142841,-1.362274,-1.139220,-1.377206,-1.103172,-1.377543,-1.099740,-1.377985,-1.098734,-1.377803,-1.097101,-1.379127,-1.083663,-1.379127,-0.250195,-1.377206,-0.230686,-1.374598,-0.224392,-1.374377,-0.219740,-1.369581,-0.212278,-1.362274,-0.194638,-1.350988,-0.183352,-1.346388,-0.176195,-1.341111,-0.173475,-1.334684,-0.167048,-1.303915,-0.154302,-1.300377,-0.152479,
-1.182351,-0.126892,-0.954730,-0.046097,-0.739170,0.062867,-0.539139,0.198245,-0.357858,0.357858,-0.198245,0.539139,-0.062867,0.739170,0.046097,0.954730,0.126892,1.182351,0.152479,1.300377,0.154302,1.303915,0.167048,1.334684,0.173475,1.341111,0.176195,1.346388,0.183352,1.350988,0.194638,1.362274,0.212278,1.369581,0.219740,1.374377,0.224392,1.374598,0.230686,1.377206,
0.250195,1.379127,1.083663,1.379127,1.097101,1.377803,1.097101,1.377803,$1*%
G04 Aperture macros list end*
%ADD10C,0.010000*%
%ADD11RoundRect,0.250000X-0.250000X-0.475000X0.250000X-0.475000X0.250000X0.475000X-0.250000X0.475000X0*%
%ADD12R,0.550000X0.570000*%
%ADD13RoundRect,0.250000X-0.450000X0.262500X-0.450000X-0.262500X0.450000X-0.262500X0.450000X0.262500X0*%
%ADD14RoundRect,0.250000X-0.945000X0.420000X-0.945000X-0.420000X0.945000X-0.420000X0.945000X0.420000X0*%
%ADD15R,1.100000X0.800000*%
%ADD16R,1.100000X1.000000*%
%ADD17R,1.400000X1.000000*%
%ADD18R,0.950000X2.150000*%
%ADD19R,3.250000X2.150000*%
%ADD20RoundRect,0.250000X0.475000X-0.250000X0.475000X0.250000X-0.475000X0.250000X-0.475000X-0.250000X0*%
%ADD21FreePoly0,0.000000*%
%ADD22FreePoly1,0.000000*%
%ADD23FreePoly2,0.000000*%
%ADD24FreePoly3,0.000000*%
%ADD25RoundRect,0.250000X0.450000X-0.262500X0.450000X0.262500X-0.450000X0.262500X-0.450000X-0.262500X0*%
%ADD26RoundRect,0.250000X-0.262500X-0.450000X0.262500X-0.450000X0.262500X0.450000X-0.262500X0.450000X0*%
%ADD27RoundRect,0.250000X0.420000X0.945000X-0.420000X0.945000X-0.420000X-0.945000X0.420000X-0.945000X0*%
%ADD28RoundRect,0.250000X-0.475000X0.250000X-0.475000X-0.250000X0.475000X-0.250000X0.475000X0.250000X0*%
%ADD29RoundRect,0.150000X-0.150000X0.512500X-0.150000X-0.512500X0.150000X-0.512500X0.150000X0.512500X0*%
%ADD30R,0.910000X2.810000*%
%ADD31R,1.200000X1.200000*%
%ADD32R,1.600000X1.500000*%
%ADD33RoundRect,0.250000X0.262500X0.450000X-0.262500X0.450000X-0.262500X-0.450000X0.262500X-0.450000X0*%
%ADD34RoundRect,0.065000X0.065000X-0.355000X0.065000X0.355000X-0.065000X0.355000X-0.065000X-0.355000X0*%
%ADD35RoundRect,0.065000X0.355000X-0.065000X0.355000X0.065000X-0.355000X0.065000X-0.355000X-0.065000X0*%
%ADD36R,0.350000X0.500000*%
%ADD37RoundRect,0.250000X0.250000X0.475000X-0.250000X0.475000X-0.250000X-0.475000X0.250000X-0.475000X0*%
%ADD38R,1.000000X1.500000*%
%ADD39R,0.700000X1.500000*%
%ADD40R,1.500000X2.800000*%
%ADD41R,1.000000X1.400000*%
%ADD42RoundRect,0.100000X-0.495000X-0.100000X0.495000X-0.100000X0.495000X0.100000X-0.495000X0.100000X0*%
%ADD43RoundRect,0.250000X0.255000X0.255000X-0.255000X0.255000X-0.255000X-0.255000X0.255000X-0.255000X0*%
%ADD44RoundRect,0.062500X0.350000X0.062500X-0.350000X0.062500X-0.350000X-0.062500X0.350000X-0.062500X0*%
%ADD45RoundRect,0.062500X0.062500X0.350000X-0.062500X0.350000X-0.062500X-0.350000X0.062500X-0.350000X0*%
%ADD46O,1.600000X0.600000*%
%ADD47R,1.500000X0.900000*%
%ADD48R,0.700000X0.700000*%
%ADD49R,0.300000X1.200000*%
%ADD50R,0.200000X1.000000*%
G04 APERTURE END LIST*
D10*
%TO.C,U4*%
X163870000Y-90120000D02*
X162910000Y-90120000D01*
X162910000Y-89160000D01*
X163870000Y-89160000D01*
X163870000Y-90120000D01*
G36*
X163870000Y-90120000D02*
G01*
X162910000Y-90120000D01*
X162910000Y-89160000D01*
X163870000Y-89160000D01*
X163870000Y-90120000D01*
G37*
X163870000Y-91340000D02*
X162910000Y-91340000D01*
X162910000Y-90380000D01*
X163870000Y-90380000D01*
X163870000Y-91340000D01*
G36*
X163870000Y-91340000D02*
G01*
X162910000Y-91340000D01*
X162910000Y-90380000D01*
X163870000Y-90380000D01*
X163870000Y-91340000D01*
G37*
X165090000Y-90120000D02*
X164130000Y-90120000D01*
X164130000Y-89160000D01*
X165090000Y-89160000D01*
X165090000Y-90120000D01*
G36*
X165090000Y-90120000D02*
G01*
X164130000Y-90120000D01*
X164130000Y-89160000D01*
X165090000Y-89160000D01*
X165090000Y-90120000D01*
G37*
X165090000Y-91340000D02*
X164130000Y-91340000D01*
X164130000Y-90380000D01*
X165090000Y-90380000D01*
X165090000Y-91340000D01*
G36*
X165090000Y-91340000D02*
G01*
X164130000Y-91340000D01*
X164130000Y-90380000D01*
X165090000Y-90380000D01*
X165090000Y-91340000D01*
G37*
%TD*%
D11*
%TO.C,C6*%
X144000000Y-112250000D03*
X145900000Y-112250000D03*
%TD*%
D12*
%TO.C,S1*%
X177000000Y-113750000D03*
X179550000Y-113750000D03*
X177000000Y-114910000D03*
X179550000Y-114910000D03*
%TD*%
D13*
%TO.C,R20*%
X188750000Y-73750000D03*
X188750000Y-75575000D03*
%TD*%
D14*
%TO.C,C3*%
X144000000Y-82670000D03*
X144000000Y-85750000D03*
%TD*%
D15*
%TO.C,Q1*%
X166657500Y-80200000D03*
X166657500Y-81300000D03*
D16*
X170167500Y-80750000D03*
%TD*%
D17*
%TO.C,LED2*%
X135000000Y-99312500D03*
X135000000Y-97512500D03*
%TD*%
D18*
%TO.C,VR2*%
X147200000Y-87150000D03*
X149500000Y-87150000D03*
X151800000Y-87150000D03*
D19*
X149500000Y-81350000D03*
%TD*%
D20*
%TO.C,C21*%
X163325000Y-73000000D03*
X163325000Y-71100000D03*
%TD*%
D21*
%TO.C,H2*%
X134045873Y-90120873D03*
D22*
X134045873Y-93529127D03*
D23*
X137454127Y-90120873D03*
D24*
X137454127Y-93529127D03*
%TD*%
D13*
%TO.C,R7*%
X140750000Y-101912500D03*
X140750000Y-103737500D03*
%TD*%
D11*
%TO.C,C17*%
X148875000Y-73750000D03*
X150775000Y-73750000D03*
%TD*%
D25*
%TO.C,R21*%
X171750000Y-63075000D03*
X171750000Y-61250000D03*
%TD*%
D26*
%TO.C,R25*%
X153912500Y-73750000D03*
X155737500Y-73750000D03*
%TD*%
D25*
%TO.C,R1*%
X156550000Y-106162500D03*
X156550000Y-104337500D03*
%TD*%
D12*
%TO.C,S2*%
X172225000Y-113670000D03*
X174775000Y-113670000D03*
X172225000Y-114830000D03*
X174775000Y-114830000D03*
%TD*%
D26*
%TO.C,R23*%
X167500000Y-78000000D03*
X169325000Y-78000000D03*
%TD*%
D27*
%TO.C,C2*%
X150750000Y-90000000D03*
X147670000Y-90000000D03*
%TD*%
D28*
%TO.C,C15*%
X162500000Y-61750000D03*
X162500000Y-63650000D03*
%TD*%
D29*
%TO.C,U2*%
X165700000Y-97250000D03*
X164750000Y-97250000D03*
X163800000Y-97250000D03*
X163800000Y-99525000D03*
X164750000Y-99525000D03*
X165700000Y-99525000D03*
%TD*%
D30*
%TO.C,F1*%
X158420000Y-101250000D03*
X155180000Y-101250000D03*
%TD*%
D31*
%TO.C,T1*%
X175100000Y-106937500D03*
D32*
X176100000Y-103687500D03*
D31*
X177100000Y-106937500D03*
%TD*%
D25*
%TO.C,R8*%
X136000000Y-103825000D03*
X136000000Y-102000000D03*
%TD*%
D17*
%TO.C,LED4*%
X160500000Y-81550000D03*
X160500000Y-79750000D03*
%TD*%
D33*
%TO.C,R18*%
X190500000Y-86750000D03*
X188675000Y-86750000D03*
%TD*%
D25*
%TO.C,R9*%
X134000000Y-103825000D03*
X134000000Y-102000000D03*
%TD*%
D20*
%TO.C,C8*%
X159750000Y-91200000D03*
X159750000Y-89300000D03*
%TD*%
D14*
%TO.C,C12*%
X188500000Y-68960000D03*
X188500000Y-72040000D03*
%TD*%
D20*
%TO.C,C9*%
X156250000Y-91200000D03*
X156250000Y-89300000D03*
%TD*%
D21*
%TO.C,H3*%
X133545873Y-69249973D03*
D22*
X133545873Y-72658227D03*
D23*
X136954127Y-69249973D03*
D24*
X136954127Y-72658227D03*
%TD*%
D25*
%TO.C,R30*%
X175500000Y-101300000D03*
X175500000Y-99475000D03*
%TD*%
D26*
%TO.C,R32*%
X170500000Y-106100000D03*
X172325000Y-106100000D03*
%TD*%
D34*
%TO.C,U4*%
X163000000Y-92185000D03*
X163500000Y-92185000D03*
X164000000Y-92185000D03*
X164500000Y-92185000D03*
X165000000Y-92185000D03*
D35*
X165935000Y-91250000D03*
X165935000Y-90750000D03*
X165935000Y-90250000D03*
X165935000Y-89750000D03*
X165935000Y-89250000D03*
D34*
X165000000Y-88315000D03*
X164500000Y-88315000D03*
X164000000Y-88315000D03*
X163500000Y-88315000D03*
X163000000Y-88315000D03*
D35*
X162065000Y-89250000D03*
X162065000Y-89750000D03*
X162065000Y-90250000D03*
X162065000Y-90750000D03*
X162065000Y-91250000D03*
%TD*%
D28*
%TO.C,C10*%
X173750000Y-70050000D03*
X173750000Y-71950000D03*
%TD*%
D17*
%TO.C,LED3*%
X140500000Y-99462500D03*
X140500000Y-97662500D03*
%TD*%
D25*
%TO.C,R11*%
X170250000Y-92662500D03*
X170250000Y-90837500D03*
%TD*%
D33*
%TO.C,R6*%
X138412500Y-85500000D03*
X136587500Y-85500000D03*
%TD*%
D25*
%TO.C,R17*%
X192000000Y-75325000D03*
X192000000Y-73500000D03*
%TD*%
D26*
%TO.C,R24*%
X154250000Y-71250000D03*
X156075000Y-71250000D03*
%TD*%
D36*
%TO.C,U6*%
X165100000Y-61250000D03*
X165750000Y-61250000D03*
X166400000Y-61250000D03*
X167050000Y-61250000D03*
X167050000Y-63300000D03*
X166400000Y-63300000D03*
X165750000Y-63300000D03*
X165100000Y-63300000D03*
%TD*%
D11*
%TO.C,C18*%
X159125000Y-73750000D03*
X161025000Y-73750000D03*
%TD*%
D27*
%TO.C,C13*%
X196290000Y-86750000D03*
X193210000Y-86750000D03*
%TD*%
D37*
%TO.C,C1*%
X150750000Y-93000000D03*
X148850000Y-93000000D03*
%TD*%
D25*
%TO.C,R26*%
X165825000Y-73075000D03*
X165825000Y-71250000D03*
%TD*%
D38*
%TO.C,J3*%
X205750000Y-89500000D03*
X203250000Y-89500000D03*
X200750000Y-89500000D03*
X198250000Y-89500000D03*
X195750000Y-89500000D03*
X193250000Y-89500000D03*
X190825000Y-89500000D03*
X189125000Y-89500000D03*
X208250000Y-89500000D03*
D39*
X187825000Y-89500000D03*
D40*
X185225000Y-91300000D03*
X210325000Y-91300000D03*
X212525000Y-112800000D03*
X185225000Y-112800000D03*
D39*
X186625000Y-89500000D03*
%TD*%
D33*
%TO.C,R12*%
X170412500Y-88750000D03*
X168587500Y-88750000D03*
%TD*%
D13*
%TO.C,R10*%
X138500000Y-101912500D03*
X138500000Y-103737500D03*
%TD*%
D41*
%TO.C,LED6*%
X138400000Y-83000000D03*
X136600000Y-83000000D03*
%TD*%
D25*
%TO.C,R4*%
X143250000Y-103737500D03*
X143250000Y-101912500D03*
%TD*%
D26*
%TO.C,R29*%
X149000000Y-71250000D03*
X150825000Y-71250000D03*
%TD*%
D11*
%TO.C,C11*%
X198550000Y-87000000D03*
X200450000Y-87000000D03*
%TD*%
D20*
%TO.C,C7*%
X168250000Y-92700000D03*
X168250000Y-90800000D03*
%TD*%
D33*
%TO.C,R27*%
X160825000Y-68000000D03*
X159000000Y-68000000D03*
%TD*%
D42*
%TO.C,U7*%
X154325000Y-67250000D03*
X154325000Y-67900000D03*
X154325000Y-68550000D03*
X156245000Y-68550000D03*
X156245000Y-67250000D03*
%TD*%
D33*
%TO.C,R31*%
X181300000Y-99900000D03*
X179475000Y-99900000D03*
%TD*%
D11*
%TO.C,C16*%
X148875000Y-68750000D03*
X150775000Y-68750000D03*
%TD*%
D25*
%TO.C,R2*%
X156550000Y-109825000D03*
X156550000Y-108000000D03*
%TD*%
D33*
%TO.C,R13*%
X181162500Y-75750000D03*
X179337500Y-75750000D03*
%TD*%
D37*
%TO.C,C22*%
X150775000Y-66250000D03*
X148875000Y-66250000D03*
%TD*%
D43*
%TO.C,U1*%
X145125000Y-108287500D03*
X145125000Y-107037500D03*
X143875000Y-108287500D03*
X143875000Y-107037500D03*
D44*
X146437500Y-108662500D03*
X146437500Y-108162500D03*
X146437500Y-107662500D03*
X146437500Y-107162500D03*
X146437500Y-106662500D03*
D45*
X145500000Y-105725000D03*
X145000000Y-105725000D03*
X144500000Y-105725000D03*
X144000000Y-105725000D03*
X143500000Y-105725000D03*
D44*
X142562500Y-106662500D03*
X142562500Y-107162500D03*
X142562500Y-107662500D03*
X142562500Y-108162500D03*
X142562500Y-108662500D03*
D45*
X143500000Y-109600000D03*
X144000000Y-109600000D03*
X144500000Y-109600000D03*
X145000000Y-109600000D03*
X145500000Y-109600000D03*
%TD*%
D46*
%TO.C,U3*%
X176150000Y-69595000D03*
X176150000Y-70865000D03*
X176150000Y-72135000D03*
X176150000Y-73405000D03*
X183350000Y-73405000D03*
X183350000Y-72135000D03*
X183350000Y-70865000D03*
X183350000Y-69595000D03*
%TD*%
D25*
%TO.C,R3*%
X145500000Y-103737500D03*
X145500000Y-101912500D03*
%TD*%
D21*
%TO.C,H1*%
X175500000Y-86470873D03*
D22*
X175500000Y-89879127D03*
D23*
X178908254Y-86470873D03*
D24*
X178908254Y-89879127D03*
%TD*%
D25*
%TO.C,R22*%
X169000000Y-63075000D03*
X169000000Y-61250000D03*
%TD*%
D20*
%TO.C,C4*%
X168500000Y-101750000D03*
X168500000Y-99850000D03*
%TD*%
D31*
%TO.C,T2*%
X180500000Y-106400000D03*
D32*
X181500000Y-103150000D03*
D31*
X182500000Y-106400000D03*
%TD*%
D47*
%TO.C,U5*%
X195640000Y-71050000D03*
X195640000Y-72550000D03*
X195640000Y-74050000D03*
X195640000Y-75550000D03*
X195640000Y-77050000D03*
X195640000Y-78550000D03*
X195640000Y-80050000D03*
X195640000Y-81550000D03*
X195640000Y-83050000D03*
X213140000Y-83050000D03*
X213140000Y-81550000D03*
X213140000Y-80050000D03*
X213140000Y-78550000D03*
X213140000Y-77050000D03*
X213140000Y-75550000D03*
X213140000Y-74050000D03*
X213140000Y-72550000D03*
X213140000Y-71050000D03*
D48*
X204250000Y-76150000D03*
X205350000Y-76150000D03*
X206450000Y-76150000D03*
X204250000Y-77250000D03*
X205350000Y-77250000D03*
X206450000Y-77250000D03*
X204250000Y-78350000D03*
X205350000Y-78350000D03*
X206450000Y-78350000D03*
%TD*%
D33*
%TO.C,R19*%
X204412500Y-86750000D03*
X202587500Y-86750000D03*
%TD*%
%TO.C,R14*%
X168075000Y-84500000D03*
X166250000Y-84500000D03*
%TD*%
D11*
%TO.C,C20*%
X172100000Y-111000000D03*
X174000000Y-111000000D03*
%TD*%
D28*
%TO.C,C14*%
X192500000Y-67300000D03*
X192500000Y-69200000D03*
%TD*%
D49*
%TO.C,J2*%
X160400000Y-103790000D03*
X160900000Y-103790000D03*
X161400000Y-103790000D03*
X161900000Y-103790000D03*
X162400000Y-103790000D03*
X162900000Y-103790000D03*
X163400000Y-103790000D03*
X163900000Y-103790000D03*
X164400000Y-103790000D03*
X164900000Y-103790000D03*
X165400000Y-103790000D03*
X165900000Y-103790000D03*
D50*
X163150000Y-108370000D03*
X163150000Y-111470000D03*
%TD*%
D25*
%TO.C,R16*%
X162750000Y-85412500D03*
X162750000Y-83587500D03*
%TD*%
D17*
%TO.C,LED1*%
X137750000Y-99312500D03*
X137750000Y-97512500D03*
%TD*%
D25*
%TO.C,R5*%
X147500000Y-103825000D03*
X147500000Y-102000000D03*
%TD*%
D33*
%TO.C,R28*%
X160900000Y-71250000D03*
X159075000Y-71250000D03*
%TD*%
D20*
%TO.C,C19*%
X181500000Y-114750000D03*
X181500000Y-112850000D03*
%TD*%
D28*
%TO.C,C5*%
X140500000Y-83250000D03*
X140500000Y-85150000D03*
%TD*%
D25*
%TO.C,R15*%
X156250000Y-87075000D03*
X156250000Y-85250000D03*
%TD*%
D17*
%TO.C,LED5*%
X158000000Y-81550000D03*
X158000000Y-79750000D03*
%TD*%
M02*
